<svg width="18" height="20" viewBox="0 0 18 20" fill="none" xmlns="http://www.w3.org/2000/svg">
<g id="btn_user_icon">
<g id="Vector">
<mask id="path-1-outside-1_1_629" maskUnits="userSpaceOnUse" x="-0.48291" y="10.6666" width="18" height="9" fill="black">
<rect fill="white" x="-0.48291" y="10.6666" width="18" height="9"/>
<path d="M16 18V16.2222C16 15.2792 15.6185 14.3748 14.9395 13.708C14.2605 13.0412 13.3395 12.6666 12.3793 12.6666H5.13782C4.17754 12.6666 3.25659 13.0412 2.57758 13.708C1.89856 14.3748 1.51709 15.2792 1.51709 16.2222V18"/>
</mask>
<path d="M14.8 18C14.8 18.6627 15.3373 19.2 16 19.2C16.6627 19.2 17.2 18.6627 17.2 18H14.8ZM12.3793 12.6666V11.4666V12.6666ZM5.13782 12.6666V11.4666V12.6666ZM1.51709 16.2222H0.31709H1.51709ZM0.31709 18C0.31709 18.6627 0.854348 19.2 1.51709 19.2C2.17983 19.2 2.71709 18.6627 2.71709 18H0.31709ZM17.2 18V16.2222H14.8V18H17.2ZM17.2 16.2222C17.2 14.9538 16.6867 13.7419 15.7803 12.8518L14.0987 14.5642C14.5504 15.0077 14.8 15.6046 14.8 16.2222H17.2ZM15.7803 12.8518C14.8746 11.9625 13.6508 11.4666 12.3793 11.4666L12.3793 13.8666C13.0282 13.8666 13.6463 14.12 14.0987 14.5642L15.7803 12.8518ZM12.3793 11.4666H5.13782V13.8666H12.3793V11.4666ZM5.13782 11.4666C3.86624 11.4666 2.64245 11.9625 1.73679 12.8518L3.41836 14.5642C3.87073 14.12 4.48884 13.8666 5.13782 13.8666V11.4666ZM1.73679 12.8518C0.830382 13.7419 0.31709 14.9538 0.31709 16.2222H2.71709C2.71709 15.6046 2.96673 15.0077 3.41836 14.5642L1.73679 12.8518ZM0.31709 16.2222V18H2.71709V16.2222H0.31709Z" fill="#090F47" fill-opacity="0.45" mask="url(#path-1-outside-1_1_629)"/>
</g>
<path id="Vector_2" d="M8.75842 9.71111C11.0791 9.71111 12.9791 7.86083 12.9791 5.55556C12.9791 3.25028 11.0791 1.4 8.75842 1.4C6.4377 1.4 4.5377 3.25028 4.5377 5.55556C4.5377 7.86083 6.4377 9.71111 8.75842 9.71111Z" stroke="#090F47" stroke-opacity="0.45" stroke-width="1.2" stroke-linecap="round" stroke-linejoin="round"/>
</g>
</svg>
