<svg width="18" height="20" viewBox="0 0 18 20" fill="none" xmlns="http://www.w3.org/2000/svg">
<g id="btn_shopping_cart">
<path id="Vector" d="M4.58632 1.4C4.39931 1.4 4.223 1.4872 4.10949 1.63582L1.6655 4.83582C1.58561 4.94042 1.54233 5.06838 1.54233 5.2V16.4C1.54233 16.987 1.77991 17.5478 2.19916 17.9595C2.61804 18.3708 3.18389 18.6 3.77166 18.6H15.1769C15.7647 18.6 16.3306 18.3708 16.7494 17.9595C17.1687 17.5478 17.4063 16.987 17.4063 16.4V5.2C17.4063 5.06838 17.363 4.94042 17.2831 4.83582L14.8391 1.63582C14.7256 1.4872 14.5493 1.4 14.3623 1.4H4.58632Z" stroke="#090F47" stroke-opacity="0.45" stroke-width="1.2" stroke-linecap="round" stroke-linejoin="round"/>
<path id="Vector_2" d="M2.14233 5.19995H16.8063" stroke="#090F47" stroke-opacity="0.45" stroke-width="1.2" stroke-linecap="round" stroke-linejoin="round"/>
<g id="Vector_3">
<mask id="path-3-outside-1_1_620" maskUnits="userSpaceOnUse" x="4.21558" y="6.40002" width="10" height="7" fill="black">
<rect fill="white" x="4.21558" y="6.40002" width="10" height="7"/>
<path d="M12.7329 8.40002C12.7329 9.24872 12.3896 10.0626 11.7784 10.6628C11.1673 11.2629 10.3385 11.6 9.47423 11.6C8.60998 11.6 7.78113 11.2629 7.17001 10.6628C6.5589 10.0626 6.21558 9.24872 6.21558 8.40002"/>
</mask>
<path d="M13.9329 8.40002C13.9329 7.73728 13.3956 7.20002 12.7329 7.20002C12.0701 7.20002 11.5329 7.73728 11.5329 8.40002L13.9329 8.40002ZM9.47423 11.6V12.8V11.6ZM7.41558 8.40002C7.41558 7.73728 6.87832 7.20002 6.21558 7.20002C5.55283 7.20002 5.01558 7.73728 5.01558 8.40002L7.41558 8.40002ZM11.5329 8.40002C11.5329 8.92335 11.3214 9.42975 10.9377 9.80657L12.6192 11.519C13.4577 10.6956 13.9329 9.57408 13.9329 8.40002L11.5329 8.40002ZM10.9377 9.80657C10.5532 10.1841 10.0272 10.4 9.47423 10.4V12.8C10.6498 12.8 11.7815 12.3417 12.6192 11.519L10.9377 9.80657ZM9.47423 10.4C8.92128 10.4 8.39527 10.1841 8.0108 9.80657L6.32923 11.519C7.16699 12.3417 8.29868 12.8 9.47423 12.8V10.4ZM8.0108 9.80657C7.62707 9.42975 7.41558 8.92335 7.41558 8.40002L5.01558 8.40002C5.01558 9.57408 5.49072 10.6956 6.32923 11.519L8.0108 9.80657Z" fill="#090F47" fill-opacity="0.45" mask="url(#path-3-outside-1_1_620)"/>
</g>
</g>
</svg>
