<svg width="19" height="20" viewBox="0 0 19 20" fill="none" xmlns="http://www.w3.org/2000/svg">
<g id="btn_home">
<path id="Vector" d="M1.39302 6.80529C1.14532 6.99447 1 7.28832 1 7.6V16.4C1 17.0955 1.28151 17.7587 1.77656 18.2449L2.47722 17.5314L1.77656 18.2449C2.27099 18.7304 2.93779 19 3.62933 19H15.0346C15.7262 19 16.3929 18.7304 16.8874 18.2449C17.3824 17.7587 17.6639 17.0955 17.6639 16.4V7.6C17.6639 7.28832 17.5186 6.99447 17.2709 6.80529L9.93896 1.20529C9.58058 0.931571 9.08336 0.931571 8.72499 1.20529L1.39302 6.80529Z" stroke="#4157FF" stroke-width="2" stroke-linecap="round" stroke-linejoin="round"/>
<g id="Vector_2">
<mask id="path-2-outside-1_1_617" maskUnits="userSpaceOnUse" x="4.88794" y="8" width="9" height="12" fill="black">
<rect fill="white" x="4.88794" y="8" width="9" height="12"/>
<path d="M6.88794 18V10H11.7759V18"/>
</mask>
<path d="M4.88794 18C4.88794 19.1046 5.78337 20 6.88794 20C7.99251 20 8.88794 19.1046 8.88794 18H4.88794ZM6.88794 10V8C5.78337 8 4.88794 8.89543 4.88794 10H6.88794ZM11.7759 10H13.7759C13.7759 8.89543 12.8805 8 11.7759 8V10ZM9.77592 18C9.77592 19.1046 10.6714 20 11.7759 20C12.8805 20 13.7759 19.1046 13.7759 18H9.77592ZM8.88794 18V10H4.88794V18H8.88794ZM6.88794 12H11.7759V8H6.88794V12ZM9.77592 10V18H13.7759V10H9.77592Z" fill="#4157FF" mask="url(#path-2-outside-1_1_617)"/>
</g>
</g>
</svg>
