<svg width="232" height="211" viewBox="0 0 232 211" fill="none" xmlns="http://www.w3.org/2000/svg">
<g id="Group 6214">
<path id="Rectangle 994" d="M1.16772 9.36559C1.16772 5.33418 4.43583 2.06607 8.46724 2.06607H27.3162C30.6299 2.06607 33.3162 4.75236 33.3162 8.06607V16.6651H8.46724C4.43583 16.6651 1.16772 13.397 1.16772 9.36559Z" fill="#F4F8FB"/>
<path id="Vector 76" d="M228.621 48.4241H42.2889L61.7114 150.847C62.0695 152.735 63.7196 154.102 65.6414 154.102H205.899C209.788 154.102 213.114 151.304 213.78 147.472L230.592 50.7667C230.804 49.5435 229.863 48.4241 228.621 48.4241Z" fill="white"/>
<path id="Vector 75" d="M54.4006 48.4251H229.805C230.428 48.4251 230.9 48.9883 230.79 49.6013L212.976 149.126C212.293 152.94 208.976 155.716 205.101 155.716H65.6919C62.2989 155.716 59.3944 153.283 58.8001 149.943L35.2144 17.3662M35.2144 17.3662L33.0062 4.95395C32.5817 2.56783 30.5071 0.829712 28.0835 0.829712H4.96106C2.75192 0.829712 0.96106 2.62057 0.96106 4.82971V13.3662C0.96106 15.5754 2.75192 17.3662 4.96106 17.3662H35.2144Z" stroke="#A7B4CF"/>
<line id="Line 3181" x1="60.3273" y1="86.6464" x2="211.297" y2="86.6464" stroke="#A7B4CF" stroke-linecap="round" stroke-linejoin="round"/>
<line id="Line 3182" x1="64.0845" y1="118.512" x2="205.45" y2="118.512" stroke="#A7B4CF" stroke-linecap="round" stroke-linejoin="round"/>
<line id="Line 3183" x1="0.5" y1="-0.5" x2="79.8423" y2="-0.5" transform="matrix(0.10913 0.994027 -0.994791 0.101938 87.8002 61.3323)" stroke="#A7B4CF" stroke-linecap="round" stroke-linejoin="round"/>
<line id="Line 3185" x1="0.5" y1="-0.5" x2="79.8423" y2="-0.5" transform="matrix(-0.10913 0.994027 0.994791 0.101938 186.33 61.3323)" stroke="#A7B4CF" stroke-linecap="round" stroke-linejoin="round"/>
<path id="Vector 77" d="M81.5385 180.32L87.0252 172.369C87.7719 171.287 89.0027 170.64 90.3174 170.64H201.36" stroke="#A7B4CF"/>
<line id="Line 3184" x1="136.313" y1="61.8323" x2="136.313" y2="140.695" stroke="#A7B4CF" stroke-linecap="round" stroke-linejoin="round"/>
<path id="Ellipse 398" d="M81.0387 198.068C81.0387 204.681 75.4846 210.071 68.5967 210.071C61.7088 210.071 56.1548 204.681 56.1548 198.068C56.1548 191.455 61.7088 186.064 68.5967 186.064C75.4846 186.064 81.0387 191.455 81.0387 198.068Z" fill="#DCE0EB" stroke="#A7B4CF"/>
<path id="Ellipse 399" d="M200.859 198.068C200.859 204.681 195.305 210.071 188.417 210.071C181.53 210.071 175.975 204.681 175.975 198.068C175.975 191.455 181.53 186.064 188.417 186.064C195.305 186.064 200.859 191.455 200.859 198.068Z" fill="#DCE0EB" stroke="#A7B4CF"/>
<line id="Line 3186" x1="0.959839" y1="97.133" x2="28.0982" y2="97.133" stroke="#1987FB"/>
<line id="Line 3187" x1="10.1456" y1="140.694" x2="37.284" y2="140.694" stroke="#1987FB"/>
<line id="Line 3188" x1="17.2424" y1="118.512" x2="33.108" y2="118.512" stroke="#1987FB"/>
</g>
</svg>
