<svg width="24" height="24" viewBox="0 0 24 24" fill="none" xmlns="http://www.w3.org/2000/svg">
<g id="group3636">
<g id="group3635">
<g id="group1183">
<path id="Vector" d="M16.0021 9.80085C16.0021 8.52759 15.4963 7.30647 14.596 6.40614C13.6957 5.5058 12.4745 5 11.2013 5C9.92801 5 8.7069 5.5058 7.80656 6.40614C6.90623 7.30647 6.40043 8.52759 6.40043 9.80085C6.40043 15.4018 4 17.0021 4 17.0021H18.4026C18.4026 17.0021 16.0021 15.4018 16.0021 9.80085Z" stroke="white" stroke-width="1.2" stroke-linecap="round" stroke-linejoin="round"/>
<path id="Vector_2" d="M12.5856 20.2027C12.445 20.4452 12.243 20.6465 12.0001 20.7864C11.7572 20.9264 11.4817 21 11.2014 21C10.921 21 10.6456 20.9264 10.4027 20.7864C10.1597 20.6465 9.95781 20.4452 9.81714 20.2027" stroke="white" stroke-width="1.2" stroke-linecap="round" stroke-linejoin="round"/>
</g>
<circle id="Ellipse 20" cx="16" cy="8" r="3.5" fill="#FF0000" stroke="white"/>
</g>
</g>
</svg>
