<svg width="468" height="600" viewBox="0 0 468 600" fill="none" xmlns="http://www.w3.org/2000/svg">
<path d="M-631 61.8095C-257.328 -167.29 -217.723 1144.42 605.02 1.1655" stroke="black" stroke-miterlimit="10" stroke-linecap="round" stroke-linejoin="round"/>
<path d="M-630.016 80.2272C-244.29 -185.109 -194.722 1131.99 608.34 25.1235" stroke="black" stroke-width="0.9758" stroke-miterlimit="10" stroke-linecap="round" stroke-linejoin="round"/>
<path d="M-629.155 98.6451C-231.253 -203.077 -171.967 1119.41 611.415 49.0817" stroke="black" stroke-width="0.9516" stroke-miterlimit="10" stroke-linecap="round" stroke-linejoin="round"/>
<path d="M-628.171 117.063C-218.091 -220.896 -148.966 1106.98 614.737 72.89" stroke="black" stroke-width="0.9274" stroke-miterlimit="10" stroke-linecap="round" stroke-linejoin="round"/>
<path d="M-627.187 135.63C-205.054 -238.565 -125.965 1094.7 617.934 96.9979" stroke="black" stroke-width="0.9032" stroke-miterlimit="10" stroke-linecap="round" stroke-linejoin="round"/>
<path d="M-626.326 154.048C-192.015 -256.534 -103.21 1082.28 621.01 120.956" stroke="black" stroke-width="0.879" stroke-miterlimit="10" stroke-linecap="round" stroke-linejoin="round"/>
<path d="M-625.342 172.466C-178.855 -274.353 -80.2091 1069.85 624.331 144.914" stroke="black" stroke-width="0.8548" stroke-miterlimit="10" stroke-linecap="round" stroke-linejoin="round"/>
<path d="M-624.358 191.033C-165.694 -292.172 -57.2083 1057.57 627.529 169.022" stroke="black" stroke-width="0.8306" stroke-miterlimit="10" stroke-linecap="round" stroke-linejoin="round"/>
<path d="M-623.497 209.451C-152.779 -309.991 -34.4537 1045.14 630.603 192.83" stroke="black" stroke-width="0.8065" stroke-miterlimit="10" stroke-linecap="round" stroke-linejoin="round"/>
<path d="M-622.513 227.869C-139.618 -327.809 -11.4524 1032.71 633.925 216.788" stroke="black" stroke-width="0.7823" stroke-miterlimit="10" stroke-linecap="round" stroke-linejoin="round"/>
<path d="M-621.529 246.287C-126.457 -345.778 11.5478 1020.13 637.122 240.746" stroke="black" stroke-width="0.7581" stroke-miterlimit="10" stroke-linecap="round" stroke-linejoin="round"/>
<path d="M-620.668 264.854C-113.543 -363.447 34.3025 1007.86 640.197 264.854" stroke="black" stroke-width="0.7339" stroke-miterlimit="10" stroke-linecap="round" stroke-linejoin="round"/>
<path d="M-619.684 283.272C-100.381 -381.266 57.3038 995.427 643.518 288.813" stroke="black" stroke-width="0.7097" stroke-miterlimit="10" stroke-linecap="round" stroke-linejoin="round"/>
<path d="M-618.7 301.69C-87.2204 -399.235 80.3046 982.999 646.716 312.771" stroke="black" stroke-width="0.6855" stroke-miterlimit="10" stroke-linecap="round" stroke-linejoin="round"/>
<path d="M-617.839 320.258C-74.3056 -416.904 103.059 970.72 649.791 336.729" stroke="black" stroke-width="0.6613" stroke-miterlimit="10" stroke-linecap="round" stroke-linejoin="round"/>
<path d="M-616.855 338.675C-61.1444 -434.723 126.06 958.292 653.112 360.687" stroke="black" stroke-width="0.6371" stroke-miterlimit="10" stroke-linecap="round" stroke-linejoin="round"/>
<path d="M-615.871 357.093C-48.1065 -452.691 148.938 945.864 656.31 384.645" stroke="black" stroke-width="0.6129" stroke-miterlimit="10" stroke-linecap="round" stroke-linejoin="round"/>
<path d="M-615.01 375.511C-35.0688 -470.51 171.816 933.286 659.385 408.603" stroke="black" stroke-width="0.5887" stroke-miterlimit="10" stroke-linecap="round" stroke-linejoin="round"/>
<path d="M-614.026 394.079C-21.9075 -488.329 194.817 921.007 662.706 432.711" stroke="black" stroke-width="0.5645" stroke-miterlimit="10" stroke-linecap="round" stroke-linejoin="round"/>
<path d="M-613.042 412.496C-8.74626 -506.148 217.818 908.579 665.905 456.519" stroke="black" stroke-width="0.5403" stroke-miterlimit="10" stroke-linecap="round" stroke-linejoin="round"/>
<path d="M-612.181 430.914C4.29166 -523.967 240.696 896.151 669.103 480.478" stroke="black" stroke-width="0.5161" stroke-miterlimit="10" stroke-linecap="round" stroke-linejoin="round"/>
<path d="M-611.197 449.482C17.3295 -541.785 263.574 883.872 672.301 504.585" stroke="black" stroke-width="0.4919" stroke-miterlimit="10" stroke-linecap="round" stroke-linejoin="round"/>
<path d="M-610.213 467.899C30.4902 -559.604 286.575 871.444 675.498 528.543" stroke="black" stroke-width="0.4677" stroke-miterlimit="10" stroke-linecap="round" stroke-linejoin="round"/>
<path d="M-609.352 486.317C43.5284 -577.423 309.453 859.016 678.573 552.502" stroke="black" stroke-width="0.4435" stroke-miterlimit="10" stroke-linecap="round" stroke-linejoin="round"/>
<path d="M-608.368 504.735C56.5658 -595.392 332.33 846.438 681.894 576.31" stroke="black" stroke-width="0.4194" stroke-miterlimit="10" stroke-linecap="round" stroke-linejoin="round"/>
<path d="M-607.384 523.303C69.7271 -613.061 355.331 834.159 685.092 600.418" stroke="black" stroke-width="0.3952" stroke-miterlimit="10" stroke-linecap="round" stroke-linejoin="round"/>
<path d="M-606.523 541.72C82.7643 -630.88 378.208 821.731 688.289 624.376" stroke="black" stroke-width="0.371" stroke-miterlimit="10" stroke-linecap="round" stroke-linejoin="round"/>
<path d="M-605.54 560.138C95.8022 -648.848 401.086 809.303 691.488 648.334" stroke="black" stroke-width="0.3468" stroke-miterlimit="10" stroke-linecap="round" stroke-linejoin="round"/>
<path d="M-604.555 578.706C108.964 -666.517 424.088 797.024 694.686 672.442" stroke="black" stroke-width="0.3226" stroke-miterlimit="10" stroke-linecap="round" stroke-linejoin="round"/>
<path d="M-603.694 597.123C122.001 -684.486 446.965 784.596 697.761 696.25" stroke="black" stroke-width="0.2984" stroke-miterlimit="10" stroke-linecap="round" stroke-linejoin="round"/>
<path d="M-602.71 615.541C135.039 -702.305 469.843 772.168 701.082 720.208" stroke="black" stroke-width="0.2742" stroke-miterlimit="10" stroke-linecap="round" stroke-linejoin="round"/>
<path d="M-601.726 633.959C148.2 -720.124 492.844 759.739 704.28 744.166" stroke="black" stroke-width="0.25" stroke-miterlimit="10" stroke-linecap="round" stroke-linejoin="round"/>
</svg>
